# xmcd CD database file
#
# Track frame offsets:
#	150
#	13642
#	31335
#	44549
#	57760
#	77841
#	89491
#	102723
#	117895
#	136429
#	153028
#	168467
#
# Disc length: 2413 seconds
#
# Revision: 0
# Processed by: cddbd v1.5.2PL0 Copyright (c) Steve Scherf et al.
# Submitted via: CDex 1.70beta3
#
DISCID=98096b0c
DTITLE=Dave Pell - Jazz and Romantic Places
DYEAR=1955
DGENRE=Jazz
TTITLE0=How Are Things In Glocca Morra
TTITLE1=On A Slow Boat To China
TTITLE2=Menphis In June
TTITLE3=Paris In The Spring
TTITLE4=London In July
TTITLE5=Isle Of Capri
TTITLE6=The White Cliffs Of Dover
TTITLE7=Sunday In Savannah
TTITLE8=Deep In The Heart Of Texas
TTITLE9=Shuffle Off To Buffalo
TTITLE10=New Orleans
TTITLE11=Flying Down To Rio
EXTD=YEAR: 1955
EXTT0=
EXTT1=
EXTT2=
EXTT3=
EXTT4=
EXTT5=
EXTT6=
EXTT7=
EXTT8=
EXTT9=
EXTT10=
EXTT11=
PLAYORDER=
